<?xml version="1.0" encoding="UTF-8"?>
<svg id="b" data-name="Layer 2" xmlns="http://www.w3.org/2000/svg" width="100" height="130" viewBox="0 0 100 130">
  <g id="c" data-name="Layer 1">
    <g>
      <g>
        <path d="M50,100.002C22.43,100.002,0,77.572,0,50S22.43,0,50,0s50,22.43,50,50-22.43,50.002-50,50.002M50,5.344C25.377,5.344,5.344,25.377,5.344,50s20.033,44.656,44.656,44.656,44.656-20.033,44.656-44.656S74.623,5.344,50,5.344"/>
        <path d="M26.634,32.145l18.526,44.439c.191.463.763.845,1.269.845h8.17c.502,0,.761-.382.575-.849l-17.984-44.902c-.084-.214-.345-.39-.575-.39h-9.409c-.512,0-.77.388-.572.857"/>
        <path d="M63.377,31.282h9.417c.512,0,.767.386.572.857l-12.243,29.369c-.212.514-.941.508-1.147-.009l-4.245-10.626c-.169-.42-.169-1.108,0-1.533l7.07-17.671c.084-.214.345-.388.575-.388"/>
      </g>
      <g>
        <g>
          <polygon points="5.143 129.848 2.949 129.848 0 116.388 2.325 116.388 4.046 126.596 5.784 116.388 8.109 116.388 5.143 129.848"/>
          <polygon points="9.475 129.848 9.475 116.388 15.127 116.388 15.127 118.297 11.594 118.297 11.594 122.117 14.636 122.117 14.636 124.026 11.594 124.026 11.594 127.938 15.127 127.938 15.127 129.848 9.475 129.848"/>
          <path d="M22.372,129.149c-.605.549-1.324.851-2.325.851-1.287,0-2.042-.493-2.609-1.134-1.003-1.134-.983-3.082-.983-5.729s-.02-4.632.983-5.764c.567-.643,1.323-1.137,2.609-1.137,1.02,0,1.738.303,2.344.87.662.625,1.041,1.646,1.078,2.835h-2.116c-.021-.49-.096-.963-.322-1.303-.189-.301-.472-.491-.983-.491s-.813.208-1.003.509c-.397.643-.474,2.004-.474,4.463s.076,3.818.474,4.461c.189.301.493.509,1.003.509s.812-.189,1.001-.491c.228-.34.304-.831.321-1.324h2.118c-.039,1.211-.435,2.251-1.116,2.874"/>
          <polygon points="29.012 118.297 29.012 129.848 26.893 129.848 26.893 118.297 24.644 118.297 24.644 116.387 31.278 116.387 31.278 118.297 29.012 118.297"/>
          <path d="M38.651,128.865c-.568.643-1.324,1.134-2.608,1.134s-2.043-.491-2.609-1.134c-1.003-1.133-.984-3.1-.984-5.745s-.018-4.615.984-5.748c.566-.643,1.321-1.135,2.609-1.135s2.04.492,2.608,1.135c1,1.133.984,3.099.984,5.748s.016,4.612-.984,5.745M37.063,118.656c-.189-.301-.509-.511-1.02-.511s-.813.209-1.003.511c-.397.643-.475,2.004-.475,4.463s.077,3.818.475,4.46c.189.303.491.511,1.003.511s.831-.208,1.02-.511c.397-.642.454-2.004.454-4.46s-.057-3.82-.454-4.463"/>
          <path d="M46.534,129.848l-1.759-5.52h-1.192v5.52h-2.117v-13.462h3.404c2.459,0,3.441,1.192,3.441,3.971,0,1.665-.34,2.854-1.569,3.515l2.004,5.975h-2.212ZM44.888,118.297h-1.305v4.123h1.305c1.135,0,1.305-.947,1.305-2.062s-.17-2.061-1.305-2.061"/>
          <polygon points="60.184 129.848 57.972 129.848 56.044 119.62 54.134 129.848 51.922 129.848 49.371 116.388 51.695 116.388 53.019 126.596 54.871 116.388 57.216 116.388 59.087 126.596 60.392 116.388 62.717 116.388 60.184 129.848"/>
          <path d="M69.799,128.865c-.568.643-1.324,1.134-2.608,1.134s-2.043-.491-2.609-1.134c-1.003-1.133-.984-3.1-.984-5.745s-.018-4.615.984-5.748c.566-.643,1.321-1.135,2.609-1.135s2.04.492,2.608,1.135c1,1.133.984,3.099.984,5.748s.016,4.612-.984,5.745M68.21,118.656c-.189-.301-.511-.511-1.02-.511s-.813.209-1.003.511c-.397.643-.475,2.004-.475,4.463s.077,3.818.475,4.46c.189.303.491.511,1.003.511s.831-.208,1.02-.511c.397-.642.454-2.004.454-4.46s-.057-3.82-.454-4.463"/>
          <path d="M77.683,129.848l-1.759-5.52h-1.19v5.52h-2.118v-13.462h3.403c2.459,0,3.441,1.192,3.441,3.971,0,1.665-.341,2.854-1.569,3.515l2.004,5.975h-2.212ZM76.037,118.297h-1.303v4.123h1.303c1.135,0,1.305-.947,1.305-2.062s-.17-2.061-1.305-2.061"/>
          <polygon points="86.844 129.848 84.669 124.309 83.649 126.388 83.649 129.848 81.532 129.848 81.532 116.388 83.649 116.388 83.649 122.721 86.58 116.388 88.715 116.388 86.011 121.965 89.131 129.848 86.844 129.848"/>
          <path d="M95.998,129.092c-.549.529-1.436.888-2.628.888-1.172,0-2.04-.322-2.609-.888-.642-.643-.869-1.474-.869-2.892h2.116c0,.717.077,1.171.379,1.512.188.209.512.36.983.36.492,0,.813-.133,1.021-.38.283-.321.358-.775.358-1.492,0-1.438-.225-1.778-1.265-2.212l-1.607-.662c-1.363-.568-1.874-1.305-1.874-3.386,0-1.209.36-2.191,1.097-2.853.587-.511,1.343-.812,2.308-.812,1.075,0,1.87.282,2.42.812.699.68.945,1.644.945,2.929h-2.117c0-.603-.039-1.075-.322-1.436-.191-.245-.492-.397-.945-.397-.434,0-.699.152-.907.379-.246.283-.362.737-.362,1.321,0,1.097.172,1.438,1.116,1.815l1.589.645c1.606.643,2.041,1.512,2.041,3.782,0,1.378-.188,2.306-.87,2.967"/>
        </g>
        <path d="M98.846,118.582c-.638,0-1.154-.516-1.154-1.153s.516-1.154,1.154-1.154,1.154.516,1.154,1.154-.516,1.153-1.154,1.153M98.846,116.413c-.551,0-1.003.465-1.003,1.016s.452,1.017,1.003,1.017,1.004-.465,1.004-1.017-.452-1.016-1.004-1.016M99.152,118.066l-.315-.532h-.21v.532h-.143v-1.277h.407c.21,0,.396.159.396.376,0,.188-.122.309-.291.357l.322.544h-.166ZM98.875,116.919h-.248v.487h.248c.153,0,.268-.102.268-.242s-.115-.245-.268-.245"/>
      </g>
    </g>
  </g>
</svg>